# xmcd CD database file
#
# Track frame offsets:
#	150
#	17924
#	35398
#	53169
#
# Disc length: 939 seconds
#
# Revision: 5
# Processed by: cddbd v1.5.2PL0 Copyright (c) Steve Scherf et al.
# Submitted via: CDex 1.70beta3
#
DISCID=2a03a904
DTITLE=聖川真斗 (鈴村健一) - うたの☆プリンスさまっ♪マジLOVE1000% アイドルソング 聖川真斗
DYEAR=2011
DGENRE=Anime
TTITLE0=Knocking on the mind
TTITLE1=Mostフォルティシモ
TTITLE2=Knocking on the mind (off vocal)
TTITLE3=Mostフォルティシモ (off vocal)
EXTD=YEAR: 2011
EXTT0=
EXTT1=
EXTT2=
EXTT3=
PLAYORDER=
